<?xml version="1.0" encoding="UTF-8"?>
<svg width="24px" height="24px" viewBox="0 0 24 24" version="1.1" xmlns="http://www.w3.org/2000/svg" xmlns:xlink="http://www.w3.org/1999/xlink">
    <title>编组 15@8x</title>
    <g id="中文" stroke="none" stroke-width="1" fill="none" fill-rule="evenodd">
        <g id="icon" transform="translate(-144.000000, -154.000000)">
            <g id="编组-15" transform="translate(144.000000, 154.000000)">
                <rect id="矩形" stroke="#979797" fill="#D8D8D8" opacity="0" x="0.5" y="0.5" width="23" height="23"></rect>
                <g id="航空_aviation" transform="translate(1.000000, 5.000000)" fill="#222222" fill-rule="nonzero">
                    <path d="M21.0000686,5 C21.8522385,5 22.2975024,5.98551359 21.7832938,6.62252676 L21.7071754,6.70710678 L17.7071754,10.7071068 C17.5508951,10.8633871 17.3482137,10.9625983 17.1315126,10.9913276 L17.0000686,11 L15.2500686,11 C14.6977839,11 14.2500686,10.5522847 14.2500686,10 C14.2500686,9.48716416 14.6361088,9.06449284 15.1334475,9.00672773 L15.2500686,9 L16.5840686,9 L18.5840686,7 L4.50006863,7 C4.41891996,7 4.33942833,7.01973393 4.26824128,7.05698795 L4.20006863,7.1 L2.88706863,8.084 L4.59004531,8.946143 C4.63668748,8.96975282 4.68658301,8.98581932 4.73791661,8.99390701 L4.81576863,9 L5.50006863,9 C6.05235338,9 6.50006863,9.44771525 6.50006863,10 C6.50006863,10.5128358 6.11402844,10.9355072 5.61668975,10.9932723 L5.50006863,11 L4.81576863,11 C4.48887183,11 4.16583976,10.9359156 3.86473572,10.8120469 L3.68684917,10.730586 L0.548499171,9.14223597 C-0.0739690811,8.82719863 -0.181503382,8.00013483 0.302389291,7.53313088 L0.400068627,7.45 L3.00003658,5.50002403 C3.37868416,5.21601466 3.82900142,5.04619079 4.29805357,5.00817247 L4.50006863,5 L21.0000686,5 Z" id="路径"></path>
                    <path d="M8.50006863,8 C7.94778388,8 7.50006863,8.44771525 7.50006863,9 L7.50006863,12 C7.50006863,12.5522847 7.94778388,13 8.50006863,13 C11.228795,13 13.5000686,12.1482797 13.5000686,10.5 C13.5000686,8.85172026 11.228795,8 8.50006863,8 Z M9.50006863,10.053 L9.72311041,10.0794631 C10.2008777,10.1439295 10.630015,10.245401 10.9773791,10.3756614 L11.1238058,10.4344896 L11.2640686,10.5 L11.2523758,10.506085 C11.1728064,10.5456477 11.0807575,10.585572 10.9773791,10.6243386 L10.759413,10.6989744 C10.4564148,10.7937074 10.1053242,10.8689638 9.72311041,10.9205369 L9.50006863,10.946 L9.50006863,10.053 Z" id="路径"></path>
                    <path d="M17.5000686,0 L17.3686246,0.00867243437 C17.1519235,0.0374017117 16.9492422,0.136612903 16.7929618,0.292893219 L13.9220686,3.162 L9.59393016,5.08618845 C8.60694659,5.52484782 8.9199952,7 10.0000686,7 L17.5000686,7 C17.9416768,7 18.3309997,6.71033185 18.4578949,6.28734789 L19.9578949,1.28734789 C20.1503785,0.645735959 19.6699311,0 19.0000686,0 L17.5000686,0 Z M17.5450686,2.369 L16.7560686,5 L14.7100686,5 L14.9062071,4.91381155 C15.0183648,4.86396366 15.1203878,4.79389438 15.2071754,4.70710678 L17.5450686,2.369 Z" id="路径"></path>
                </g>
            </g>
        </g>
    </g>
</svg>